# xmcd
#
# Track frame offsets:
#	150
#	14087
#	24657
#	75850
#	127962
#	175150
#	223087
#
# Disc length: 3076 seconds
#
# Revision: 1
# Processed by: cddbd v1.5.1PL0 Copyright (c) Steve Scherf et al.
# Submitted via: CDex 1.50Beta5
#
DISCID=530c0207
DTITLE=横山智佐・他 - 銀河お嬢様伝説ユナ Galaxy Wave Segment1
DYEAR=1995
DGENRE=Anime
TTITLE0=いっただきまーす・またまた登場!銀河の3人娘
TTITLE1=Funny Funny Little Girl〈Short Version〉
TTITLE2=第1話「災難続きの新たなる旅立ち」
TTITLE3=第2話「ビーコン求めて三00万里」
TTITLE4=第三話「えっ、うそ!?ユナが記憶喪失!?」
TTITLE5=第四話「愛とさすらいの聖少女」
TTITLE6=エンディング「おかわりっ!次もおいしいんですん」
EXTD=
EXTT0=
EXTT1=
EXTT2=
EXTT3=
EXTT4=
EXTT5=
EXTT6=
PLAYORDER=
